<svg width="24" height="24" fill="none" xmlns="http://www.w3.org/2000/svg"><path d="M17.28 2.4a4.33 4.33 0 014.32 4.32v10.56a4.33 4.33 0 01-4.32 4.32H6.72a4.33 4.33 0 01-4.31-4.32V6.72A4.33 4.33 0 016.72 2.4h10.56zm0-1.44H6.72A5.76 5.76 0 00.96 6.72v10.56a5.76 5.76 0 005.76 5.76h10.56a5.76 5.76 0 005.76-5.76V6.72A5.76 5.76 0 0017.28.96z" fill="#192144"/><path d="M12 7.76a4.25 4.25 0 110 8.5 4.25 4.25 0 010-8.5zm0-1.44A5.7 5.7 0 1012 17.7a5.7 5.7 0 00.02-11.38zM17.9 7.41a1.29 1.29 0 100-2.57 1.29 1.29 0 000 2.57z" fill="#192144"/></svg>