<svg width="16" height="12" viewBox="0 0 16 12" fill="none" xmlns="http://www.w3.org/2000/svg">
<path d="M1.25925 1.60026L7.25925 5.36066C7.46085 5.48666 7.72165 5.54639 7.98405 5.54639C8.24645 5.54639 8.50725 5.48666 8.70885 5.36066L14.7088 1.60026C15.1 1.35479 15.4697 0.399994 14.7521 0.399994H1.21685C0.49925 0.399994 0.86885 1.35479 1.25925 1.60026ZM14.8905 3.65639L8.70885 7.41493C8.43685 7.58106 8.24645 7.60066 7.98405 7.60066C7.72165 7.60066 7.53125 7.58106 7.25925 7.41493C6.98725 7.24879 1.55285 3.92519 1.10885 3.65546C0.79685 3.46506 0.80005 3.68813 0.80005 3.85986V10.6667C0.80005 11.0587 1.25285 11.6 1.60005 11.6H14.4001C14.7473 11.6 15.2001 11.0587 15.2001 10.6667V3.86079C15.2001 3.68906 15.2033 3.46599 14.8905 3.65639Z" fill="#161C35"/>
</svg>
