<svg xmlns="http://www.w3.org/2000/svg">
  <symbol id="telephone-icon" viewBox="0 0 19 17">
    <path fill-rule="evenodd" clip-rule="evenodd" d="M9.5 1.09c-2.8 0-5.6.47-6.62 1.41-.84.78-1.12 2.16-1.22 3.04l-.01.12c0 .34.3.62.65.62l2.57-.2h.07c.35-.02.64-.29.64-.63V4.24c0-.38.32-.68.72-.68h6.4c.4 0 .72.3.72.68v1.21c0 .34.29.61.64.62l.07.01 2.57.2c.36 0 .65-.28.65-.62l-.01-.12c-.1-.88-.38-2.26-1.22-3.04C15.1 1.56 12.3 1.1 9.5 1.1zm0 8.03c-.72 0-1.3.55-1.3 1.23 0 .69.58 1.24 1.3 1.24.72 0 1.3-.55 1.3-1.24 0-.68-.58-1.23-1.3-1.23zm-.98-2.78v-.77a.8.8 0 00-.82-.78.8.8 0 00-.82.78v.77l-4.4 4.45c-.31.28-.5.67-.5 1.1v1.24c0 .69.58 1.24 1.3 1.24h.33v.77c0 .43.37.77.82.77a.8.8 0 00.82-.77v-.77h8.5v.77c0 .43.37.77.82.77a.8.8 0 00.82-.77v-.77h.32c.73 0 1.31-.55 1.31-1.24V11.9c0-.43-.19-.82-.5-1.1l-4.4-4.45v-.77a.8.8 0 00-.82-.78.8.8 0 00-.82.78v.77H8.52zm.98 1.54c1.45 0 2.62 1.1 2.62 2.47a2.55 2.55 0 01-2.62 2.47 2.55 2.55 0 01-2.62-2.47A2.55 2.55 0 019.5 7.88z" />
  </symbol>

  <symbol id="email-icon" viewBox="0 0 28 19">
    <path fill-rule="evenodd" clip-rule="evenodd" d="M24.54 15.5L18 9.51l6.54-6-.89-.95-9.52 8.72-9.51-8.72-.9.96 6.55 6-6.55 5.98.9.96 6.61-6.06 2.9 2.65 2.9-2.65 6.62 6.06.9-.96zM2.54.07C1.3.07.32 1.12.32 2.42V16.6c0 1.3.99 2.36 2.22 2.36h23.19c1.22 0 2.21-1.06 2.21-2.36V2.42c0-1.3-.98-2.35-2.21-2.35H2.53z"/>
  </symbol>

  <symbol id="arrow-forward" viewBox="0 0 11 14">
    <path class="contacts__link-logo-path" d="M11 7L.5 13.06V.94L11 7z" />
  </symbol>


  <symbol id="like-icon" viewBox="0 0 13 13">
    <path d="M3.26 1.47c1.69 0 3.06 1.35 3.06 3.01a3.04 3.04 0 013.06-3c1.7 0 3.07 1.34 3.07 3 0 2.5-2.48 3.4-5.83 7.38a.4.4 0 01-.6 0C2.67 7.87.19 7 .19 4.48a3.04 3.04 0 013.07-3z" fill="#transparent"/>
  </symbol>
</svg>
