<?xml version="1.0" encoding="UTF-8"?><!DOCTYPE svg PUBLIC "-//W3C//DTD SVG 1.1//EN" "http://www.w3.org/Graphics/SVG/1.1/DTD/svg11.dtd"><svg xmlns="http://www.w3.org/2000/svg" xmlns:xlink="http://www.w3.org/1999/xlink"><symbol id="arrow-forward" viewBox="0 0 11 14">
  <path class="contacts__link-logo-path" d="M11 7L.5 13.06V.94L11 7z"/>
</symbol><symbol id="auto" viewBox="0 0 23 22">
  <path d="M5.75127 14.9286C5.75127 14.4948 5.56417 14.1244 5.18998 13.8175C4.81579 13.5106 4.36426 13.3571 3.8354 13.3571C3.30654 13.3571 2.85501 13.5106 2.48082 13.8175C2.10663 14.1244 1.91953 14.4948 1.91953 14.9286C1.91953 15.3624 2.10663 15.7327 2.48082 16.0396C2.85501 16.3465 3.30654 16.5 3.8354 16.5C4.36426 16.5 4.81579 16.3465 5.18998 16.0396C5.56417 15.7327 5.75127 15.3624 5.75127 14.9286ZM21.0782 14.9286C21.0782 14.4948 20.8911 14.1244 20.5169 13.8175C20.1427 13.5106 19.6912 13.3571 19.1623 13.3571C18.6335 13.3571 18.182 13.5106 17.8078 13.8175C17.4336 14.1244 17.2465 14.4948 17.2465 14.9286C17.2465 15.3624 17.4336 15.7327 17.8078 16.0396C18.182 16.3465 18.6335 16.5 19.1623 16.5C19.6912 16.5 20.1427 16.3465 20.5169 16.0396C20.8911 15.7327 21.0782 15.3624 21.0782 14.9286ZM20.3897 10.067L19.312 5.35268C19.2621 5.16443 19.1499 5.01097 18.9753 4.8923C18.8006 4.77362 18.5986 4.71429 18.3691 4.71429H4.62869C4.39918 4.71429 4.19712 4.77362 4.0225 4.8923C3.84787 5.01097 3.73561 5.16443 3.68572 5.35268L2.60805 10.067C2.55815 10.3125 2.628 10.5294 2.81759 10.7176C3.00719 10.9059 3.25166 11 3.55101 11H19.4467C19.7461 11 19.9906 10.9059 20.1802 10.7176C20.3697 10.5294 20.4396 10.3125 20.3897 10.067ZM17.007 2.55357C17.007 2.38988 16.9371 2.25074 16.7974 2.13616C16.6577 2.02158 16.4881 1.96429 16.2885 1.96429H6.7092C6.50963 1.96429 6.34 2.02158 6.2003 2.13616C6.0606 2.25074 5.99075 2.38988 5.99075 2.55357C5.99075 2.71726 6.0606 2.8564 6.2003 2.97098C6.34 3.08557 6.50963 3.14286 6.7092 3.14286H16.2885C16.4881 3.14286 16.6577 3.08557 16.7974 2.97098C16.9371 2.8564 17.007 2.71726 17.007 2.55357ZM22.9941 11.4542V18.8571H21.0782V20.4286C21.0782 20.8624 20.8911 21.2327 20.5169 21.5396C20.1427 21.8465 19.6912 22 19.1623 22C18.6335 22 18.182 21.8465 17.8078 21.5396C17.4336 21.2327 17.2465 20.8624 17.2465 20.4286V18.8571H5.75127V20.4286C5.75127 20.8624 5.56417 21.2327 5.18998 21.5396C4.81579 21.8465 4.36426 22 3.8354 22C3.30654 22 2.85501 21.8465 2.48082 21.5396C2.10663 21.2327 1.91953 20.8624 1.91953 20.4286V18.8571H0.00366211V11.4542C0.00366211 10.5376 0.128393 9.625 0.377855 8.71652L1.91953 3.14286C2.00934 2.50446 2.49579 1.94382 3.37888 1.46094C4.26198 0.978051 5.4095 0.613839 6.82146 0.368304C8.23342 0.122768 9.79255 0 11.4989 0C13.2052 0 14.7643 0.122768 16.1763 0.368304C17.5882 0.613839 18.7358 0.978051 19.6189 1.46094C20.502 1.94382 20.9884 2.50446 21.0782 3.14286L22.6498 8.71652C22.8793 9.55134 22.9941 10.4639 22.9941 11.4542Z"/>
</symbol><symbol id="avia" viewBox="0 0 18 20">
  <path d="M15.7831 0.0931422C15.0546 0.266353 14.3227 0.440377 14.0504 0.917233L11.9433 5.11585L0.629163 7.8059L0.170763 9.14743L8.82861 9.96616L7.35967 13.6009L4.07624 14.3816L3.25187 15.8101L5.62062 16.0673L5.89073 17.2357C6.01174 17.6498 6.43649 17.9263 6.79903 17.8401L7.89351 17.5799L9.16224 19.7433L9.98661 18.3148L9.17628 14.8098L11.5535 11.7795L16.0895 19.741L17.0042 18.7031L14.2128 6.62921L16.7762 2.73424C17.0519 2.25657 16.8721 1.47891 16.6914 0.697594C16.6019 0.310588 16.1457 0.00694332 15.7831 0.0931422Z"/>
</symbol><symbol id="bicycle" viewBox="0 0 25 24">
  <path d="M18.3075 21C17.4664 21 16.6442 20.7471 15.9449 20.2732C15.2456 19.7994 14.7005 19.1258 14.3786 18.3378C14.0568 17.5498 13.9726 16.6827 14.1366 15.8462C14.3007 15.0096 14.7057 14.2412 15.3005 13.6381C15.8952 13.035 16.6529 12.6243 17.4779 12.4579C18.3028 12.2915 19.1578 12.3769 19.9349 12.7033C20.7119 13.0297 21.3761 13.5824 21.8434 14.2916C22.3106 15.0008 22.5601 15.8346 22.5601 16.6875C22.5588 17.8309 22.1104 18.927 21.3132 19.7355C20.5159 20.544 19.435 20.9988 18.3075 21ZM18.3075 13.875C17.759 13.875 17.2228 14.04 16.7667 14.349C16.3106 14.658 15.9551 15.0973 15.7452 15.6112C15.5353 16.1251 15.4804 16.6906 15.5874 17.2362C15.6944 17.7818 15.9585 18.2829 16.3464 18.6762C16.7343 19.0696 17.2284 19.3374 17.7664 19.446C18.3044 19.5545 18.8621 19.4988 19.3688 19.2859C19.8756 19.073 20.3088 18.7126 20.6135 18.25C20.9182 17.7875 21.0809 17.2438 21.0809 16.6875C21.08 15.9418 20.7876 15.227 20.2676 14.6997C19.7477 14.1725 19.0428 13.8759 18.3075 13.875Z"/>
  <path d="M6.10449 21C5.26342 21 4.44123 20.7471 3.7419 20.2732C3.04257 19.7994 2.4975 19.1258 2.17564 18.3378C1.85377 17.5498 1.76956 16.6827 1.93364 15.8462C2.09773 15.0096 2.50275 14.2412 3.09748 13.6381C3.69221 13.035 4.44994 12.6243 5.27486 12.4579C6.09978 12.2915 6.95482 12.3769 7.73188 12.7033C8.50893 13.0297 9.17309 13.5824 9.64037 14.2916C10.1076 15.0008 10.3571 15.8346 10.3571 16.6875C10.3558 17.8309 9.9074 18.927 9.11016 19.7355C8.31291 20.544 7.23197 20.9988 6.10449 21ZM6.10449 13.875C5.55596 13.875 5.01975 14.04 4.56367 14.349C4.10758 14.658 3.75211 15.0973 3.5422 15.6112C3.33228 16.1251 3.27736 16.6906 3.38437 17.2362C3.49139 17.7818 3.75553 18.2829 4.1434 18.6762C4.53126 19.0696 5.02544 19.3374 5.56343 19.446C6.10142 19.5545 6.65906 19.4988 7.16583 19.2859C7.67261 19.073 8.10575 18.7126 8.4105 18.25C8.71525 17.7875 8.8779 17.2438 8.8779 16.6875C8.87705 15.9418 8.58458 15.227 8.06465 14.6997C7.54472 14.1725 6.83979 13.8759 6.10449 13.875Z"/>
  <path d="M15.1644 6.00005C15.3592 6.00073 15.5522 5.96225 15.7323 5.88681C15.9123 5.81138 16.0759 5.7005 16.2134 5.56058C16.351 5.42065 16.4598 5.25447 16.5336 5.07163C16.6074 4.88879 16.6448 4.69293 16.6435 4.49536C16.6457 4.29878 16.6092 4.10374 16.5361 3.92164C16.4631 3.73954 16.3549 3.57403 16.2181 3.4348C16.0812 3.29558 15.9183 3.18542 15.739 3.11077C15.5597 3.03612 15.3675 2.99848 15.1736 3.00005C14.9794 2.99943 14.7869 3.03762 14.6072 3.11243C14.4275 3.18725 14.2641 3.29722 14.1263 3.43607C13.9885 3.57493 13.8791 3.73994 13.8042 3.92169C13.7293 4.10344 13.6904 4.29838 13.6898 4.49536C13.6892 4.69234 13.7269 4.88752 13.8007 5.06974C13.8744 5.25197 13.9829 5.41767 14.1198 5.55739C14.2567 5.69712 14.4194 5.80812 14.5987 5.88407C14.7779 5.96002 14.9701 5.99943 15.1644 6.00005Z"/>
  <path d="M17.3622 9.00003H15.3395C15.3063 9.00004 15.2737 8.99099 15.2452 8.97384C15.2167 8.95668 15.1932 8.93205 15.1773 8.90253L13.7101 6.17581C13.6068 5.97318 13.4578 5.79807 13.2753 5.66467C13.0928 5.53127 12.8818 5.44333 12.6596 5.40795C12.4373 5.37258 12.21 5.39077 11.996 5.46106C11.7819 5.53135 11.5872 5.65175 11.4276 5.81253L8.19843 9.11253C7.92715 9.39333 7.77316 9.76945 7.76855 10.1625C7.76855 10.9782 8.35097 11.2688 8.62369 11.4328C9.94106 12.2025 10.8688 12.7655 11.3777 13.0782C11.4047 13.0949 11.4271 13.1183 11.4427 13.1463C11.4582 13.1743 11.4664 13.2059 11.4664 13.238V16.478C11.4664 16.8816 11.7724 17.228 12.1704 17.2482C12.2703 17.253 12.3702 17.2373 12.464 17.2019C12.5577 17.1666 12.6434 17.1123 12.7159 17.0423C12.7883 16.9724 12.8461 16.8883 12.8855 16.7951C12.925 16.7018 12.9455 16.6015 12.9456 16.5V12.4688C12.9457 12.3497 12.9178 12.2324 12.8642 12.1264C12.8107 12.0204 12.7331 11.9289 12.6377 11.8594L10.9275 10.6121C10.906 10.5965 10.8881 10.5764 10.8749 10.5532C10.8617 10.53 10.8536 10.5043 10.851 10.4776C10.8485 10.451 10.8516 10.4241 10.8602 10.3988C10.8687 10.3734 10.8825 10.3503 10.9007 10.3308L12.842 8.23128C12.862 8.20968 12.8866 8.19316 12.914 8.18307C12.9414 8.17297 12.9708 8.1696 12.9997 8.17321C13.0287 8.17682 13.0563 8.18731 13.0805 8.20384C13.1047 8.22037 13.1247 8.24246 13.1388 8.26831L14.1474 10.1143C14.2115 10.2313 14.3053 10.3288 14.4191 10.3966C14.5329 10.4644 14.6625 10.5001 14.7945 10.5H17.383C17.4832 10.5002 17.5824 10.4796 17.6745 10.4397C17.7667 10.3998 17.8498 10.3413 17.919 10.2678C17.9882 10.1942 18.0419 10.1073 18.0769 10.012C18.1119 9.91685 18.1274 9.81542 18.1226 9.71394C18.1032 9.31035 17.7602 9.00003 17.3622 9.00003Z"/>
</symbol><symbol id="email-icon" viewBox="0 0 28 19">
  <path fill-rule="evenodd" clip-rule="evenodd" d="M24.54 15.5L18 9.51l6.54-6-.89-.95-9.52 8.72-9.51-8.72-.9.96 6.55 6-6.55 5.98.9.96 6.61-6.06 2.9 2.65 2.9-2.65 6.62 6.06.9-.96zM2.54.07C1.3.07.32 1.12.32 2.42V16.6c0 1.3.99 2.36 2.22 2.36h23.19c1.22 0 2.21-1.06 2.21-2.36V2.42c0-1.3-.98-2.35-2.21-2.35H2.53z"/>
</symbol><symbol id="like-icon" viewBox="0 0 13 13">
  <path d="M3.26 1.47c1.69 0 3.06 1.35 3.06 3.01a3.04 3.04 0 013.06-3c1.7 0 3.07 1.34 3.07 3 0 2.5-2.48 3.4-5.83 7.38a.4.4 0 01-.6 0C2.67 7.87.19 7 .19 4.48a3.04 3.04 0 013.07-3z" fill="#transparent"/>
</symbol><symbol id="run" viewBox="0 0 21 24">
  <path d="M14.9758 5.75992C15.9264 5.75992 16.697 4.90031 16.697 3.83992C16.697 2.77954 15.9264 1.91992 14.9758 1.91992C14.0252 1.91992 13.2546 2.77954 13.2546 3.83992C13.2546 4.90031 14.0252 5.75992 14.9758 5.75992Z"/>
  <path d="M13.9233 10.5302C14.1209 10.8586 14.4043 11.1113 14.735 11.2538C15.0657 11.3964 15.4277 11.4219 15.7719 11.327L18.6256 10.5312L18.21 8.66881L15.3562 9.46465L14.1695 7.48033C13.9159 7.05655 13.5224 6.76184 13.0748 6.66049L9.76493 5.92129C9.39465 5.83839 9.01021 5.89379 8.67097 6.07893C8.33173 6.26406 8.05657 6.56863 7.88797 6.94561L6.4611 10.129L8.00071 10.9882L9.42758 7.80385L11.1204 8.18209L6.74338 16.32H2.92749V18.24H6.74338C7.34407 18.24 7.90949 17.8829 8.2193 17.3078L9.86993 14.2397L14.3184 15.2323L15.8812 20.4634L17.5129 19.8557L15.9509 14.6256C15.8545 14.3045 15.684 14.0174 15.4564 13.7933C15.2289 13.5691 14.9524 13.4158 14.6548 13.3488L12.0395 12.7661L13.5645 9.93025L13.9233 10.5302Z"/>
</symbol><symbol id="telephone-icon" viewBox="0 0 19 17">
  <path fill-rule="evenodd" clip-rule="evenodd" d="M9.5 1.09c-2.8 0-5.6.47-6.62 1.41-.84.78-1.12 2.16-1.22 3.04l-.01.12c0 .34.3.62.65.62l2.57-.2h.07c.35-.02.64-.29.64-.63V4.24c0-.38.32-.68.72-.68h6.4c.4 0 .72.3.72.68v1.21c0 .34.29.61.64.62l.07.01 2.57.2c.36 0 .65-.28.65-.62l-.01-.12c-.1-.88-.38-2.26-1.22-3.04C15.1 1.56 12.3 1.1 9.5 1.1zm0 8.03c-.72 0-1.3.55-1.3 1.23 0 .69.58 1.24 1.3 1.24.72 0 1.3-.55 1.3-1.24 0-.68-.58-1.23-1.3-1.23zm-.98-2.78v-.77a.8.8 0 00-.82-.78.8.8 0 00-.82.78v.77l-4.4 4.45c-.31.28-.5.67-.5 1.1v1.24c0 .69.58 1.24 1.3 1.24h.33v.77c0 .43.37.77.82.77a.8.8 0 00.82-.77v-.77h8.5v.77c0 .43.37.77.82.77a.8.8 0 00.82-.77v-.77h.32c.73 0 1.31-.55 1.31-1.24V11.9c0-.43-.19-.82-.5-1.1l-4.4-4.45v-.77a.8.8 0 00-.82-.78.8.8 0 00-.82.78v.77H8.52zm.98 1.54c1.45 0 2.62 1.1 2.62 2.47a2.55 2.55 0 01-2.62 2.47 2.55 2.55 0 01-2.62-2.47A2.55 2.55 0 019.5 7.88z"/>
</symbol></svg>